<?xml version="1.0" encoding="UTF-8"?>
<!DOCTYPE svg PUBLIC "-//W3C//DTD SVG 1.1//EN" "http://www.w3.org/Graphics/SVG/1.1/DTD/svg11.dtd">
<svg xmlns="http://www.w3.org/2000/svg" version="1.1" width="211px" height="188px" style="shape-rendering:geometricPrecision; text-rendering:geometricPrecision; image-rendering:optimizeQuality; fill-rule:evenodd; clip-rule:evenodd" xmlns:xlink="http://www.w3.org/1999/xlink">
<g><path style="opacity:0.993" fill="#36f2dc" d="M 45.5,-0.5 C 100.5,-0.5 155.5,-0.5 210.5,-0.5C 210.5,1.5 210.5,3.5 210.5,5.5C 208.53,17.3401 204.697,28.6735 199,39.5C 194.709,45.2325 189.209,49.3992 182.5,52C 134.212,53.3143 85.8788,53.981 37.5,54C 27.4532,56.8565 18.7866,62.0232 11.5,69.5C 12.4422,54.4356 14.9422,39.4356 19,24.5C 24.2286,12.098 33.0619,3.76471 45.5,-0.5 Z"/></g>
<g><path style="opacity:0.986" fill="#35f2db" d="M 66.5,126.5 C 51.163,126.333 35.8297,126.5 20.5,127C 16.3847,128.223 12.718,130.223 9.5,133C 6.96876,136.358 4.30209,139.524 1.5,142.5C 2.51744,126.394 5.68411,110.728 11,95.5C 14.1276,86.0408 20.2943,79.5408 29.5,76C 65.1667,75.3333 100.833,75.3333 136.5,76C 133.468,90.7608 128.635,104.928 122,118.5C 119.408,121.762 116.241,124.262 112.5,126C 97.1703,126.5 81.837,126.667 66.5,126.5 Z"/></g>
<g><path style="opacity:0.989" fill="#0aa794" d="M 66.5,126.5 C 64.3332,141.838 60.8332,156.838 56,171.5C 50.6442,179.412 43.4775,184.745 34.5,187.5C 29.5,187.5 24.5,187.5 19.5,187.5C 9.59472,184.595 2.92805,178.262 -0.5,168.5C -0.5,163.167 -0.5,157.833 -0.5,152.5C 0.433899,149.344 1.10057,146.011 1.5,142.5C 4.30209,139.524 6.96876,136.358 9.5,133C 12.718,130.223 16.3847,128.223 20.5,127C 35.8297,126.5 51.163,126.333 66.5,126.5 Z"/></g>
</svg>
