<svg width="117" height="117" viewBox="0 0 117 117" fill="none" xmlns="http://www.w3.org/2000/svg">
<path d="M113.726 39.486L94.7816 92.9121C93.041 97.8207 87.757 100.429 82.9946 98.7406L69.1421 93.8286C68.1275 93.4688 67.0273 93.4819 66.0221 93.8844L45.7125 101.529C43.935 102.203 41.9546 101.477 41.0271 99.82L30.5655 81.3353C30.0177 80.3821 29.179 79.6578 28.1644 79.298L13.9599 74.2612C9.21813 72.5798 6.75794 67.2251 8.49852 62.3164L27.4432 8.89031C29.1838 3.98168 34.4678 1.37302 39.2095 3.05443L108.244 27.5339C113.007 29.2226 115.467 34.5773 113.726 39.486Z" fill="#36F3DC"/>
<path d="M84.3369 43.4836C83.3284 46.3277 80.229 47.8374 77.3922 46.8315L36.518 32.3376C33.7227 31.3464 32.2253 28.2067 33.2338 25.3626C34.2423 22.5186 37.3567 20.9667 40.1934 21.9726L81.0676 36.4665C83.8837 37.465 85.381 40.6047 84.3576 43.4909L84.3369 43.4836Z" fill="#6B6868"/>
<path d="M53.5804 54.4913C52.684 57.0194 49.9152 58.3855 47.4098 57.497L29.2503 51.0578C26.7656 50.1767 25.4478 47.3852 26.3517 44.8361C27.2556 42.287 30.0169 40.942 32.5223 41.8304L50.7025 48.277C53.2079 49.1654 54.4976 51.9706 53.6011 54.4987L53.5804 54.4913Z" fill="#6B6868"/>
</svg>
