<svg width="339" height="121" viewBox="0 0 339 121" fill="none" xmlns="http://www.w3.org/2000/svg">
<path opacity="0.4" d="M52.3401 120.86C63.0821 120.86 71.7901 112.152 71.7901 101.41C71.7901 90.6685 63.0821 81.9604 52.3401 81.9604C41.5982 81.9604 32.8901 90.6685 32.8901 101.41C32.8901 112.152 41.5982 120.86 52.3401 120.86Z" fill="white"/>
<path d="M52.4302 103.43L83.2202 45.9004M83.2202 45.9004L19.4502 67.3604M83.2202 45.9004L21.6402 16.6804" stroke="white" stroke-width="2" stroke-miterlimit="10"/>
<path d="M52.4301 116.46C60.7696 116.46 67.5301 109.7 67.5301 101.36C67.5301 93.021 60.7696 86.2605 52.4301 86.2605C44.0906 86.2605 37.3301 93.021 37.3301 101.36C37.3301 109.7 44.0906 116.46 52.4301 116.46Z" fill="white"/>
<mask id="mask0_622_633" style="mask-type:luminance" maskUnits="userSpaceOnUse" x="37" y="86" width="31" height="31">
<path d="M52.4301 116.46C60.7696 116.46 67.5301 109.7 67.5301 101.36C67.5301 93.021 60.7696 86.2605 52.4301 86.2605C44.0906 86.2605 37.3301 93.021 37.3301 101.36C37.3301 109.7 44.0906 116.46 52.4301 116.46Z" fill="white"/>
</mask>
<g mask="url(#mask0_622_633)">
<path d="M52.4304 103.43C49.7904 103.43 47.6504 100.9 47.6504 97.7705C47.6504 94.6405 49.7904 92.1105 52.4304 92.1105C55.0704 92.1105 57.2204 94.6405 57.2204 97.7705C57.2204 100.9 55.0804 103.43 52.4304 103.43Z" fill="#32DBC6"/>
<path d="M52.4303 134.37C60.7974 134.37 67.5803 127.91 67.5803 119.94C67.5803 111.971 60.7974 105.51 52.4303 105.51C44.0632 105.51 37.2803 111.971 37.2803 119.94C37.2803 127.91 44.0632 134.37 52.4303 134.37Z" fill="#32DBC6"/>
</g>
<path d="M19.4501 80.3904C27.7896 80.3904 34.5501 73.6299 34.5501 65.2904C34.5501 56.9509 27.7896 50.1904 19.4501 50.1904C11.1106 50.1904 4.3501 56.9509 4.3501 65.2904C4.3501 73.6299 11.1106 80.3904 19.4501 80.3904Z" fill="white"/>
<mask id="mask1_622_633" style="mask-type:luminance" maskUnits="userSpaceOnUse" x="4" y="50" width="31" height="31">
<path d="M19.4501 80.3904C27.7896 80.3904 34.5501 73.6299 34.5501 65.2904C34.5501 56.9509 27.7896 50.1904 19.4501 50.1904C11.1106 50.1904 4.3501 56.9509 4.3501 65.2904C4.3501 73.6299 11.1106 80.3904 19.4501 80.3904Z" fill="white"/>
</mask>
<g mask="url(#mask1_622_633)">
<path d="M19.4502 67.3604C16.8102 67.3604 14.6602 64.8204 14.6602 61.6904C14.6602 58.5604 16.8102 56.0304 19.4502 56.0304C22.0902 56.0304 24.2402 58.5704 24.2402 61.6904C24.2402 64.8104 22.0902 67.3604 19.4502 67.3604Z" fill="#32DBC6"/>
<path d="M19.4503 98.3004C27.8174 98.3004 34.6003 91.8399 34.6003 83.8704C34.6003 75.901 27.8174 69.4404 19.4503 69.4404C11.0832 69.4404 4.30029 75.901 4.30029 83.8704C4.30029 91.8399 11.0832 98.3004 19.4503 98.3004Z" fill="#32DBC6"/>
</g>
<path opacity="0.4" d="M19.45 84.7405C30.1919 84.7405 38.9 76.0324 38.9 65.2905C38.9 54.5485 30.1919 45.8405 19.45 45.8405C8.70806 45.8405 0 54.5485 0 65.2905C0 76.0324 8.70806 84.7405 19.45 84.7405Z" fill="white"/>
<path opacity="0.4" d="M26.43 39.7204C37.1719 39.7204 45.88 31.0124 45.88 20.2704C45.88 9.52849 37.1719 0.820435 26.43 0.820435C15.688 0.820435 6.97998 9.52849 6.97998 20.2704C6.97998 31.0124 15.688 39.7204 26.43 39.7204Z" fill="white"/>
<path d="M19.4501 80.3904C27.7896 80.3904 34.5501 73.6299 34.5501 65.2904C34.5501 56.9509 27.7896 50.1904 19.4501 50.1904C11.1106 50.1904 4.3501 56.9509 4.3501 65.2904C4.3501 73.6299 11.1106 80.3904 19.4501 80.3904Z" fill="white"/>
<mask id="mask2_622_633" style="mask-type:luminance" maskUnits="userSpaceOnUse" x="4" y="50" width="31" height="31">
<path d="M19.4501 80.3904C27.7896 80.3904 34.5501 73.6299 34.5501 65.2904C34.5501 56.9509 27.7896 50.1904 19.4501 50.1904C11.1106 50.1904 4.3501 56.9509 4.3501 65.2904C4.3501 73.6299 11.1106 80.3904 19.4501 80.3904Z" fill="white"/>
</mask>
<g mask="url(#mask2_622_633)">
<path d="M19.4502 67.3604C16.8102 67.3604 14.6602 64.8204 14.6602 61.6904C14.6602 58.5604 16.8102 56.0304 19.4502 56.0304C22.0902 56.0304 24.2402 58.5704 24.2402 61.6904C24.2402 64.8104 22.0902 67.3604 19.4502 67.3604Z" fill="#32DBC6"/>
<path d="M19.4503 98.3004C27.8174 98.3004 34.6003 91.8399 34.6003 83.8704C34.6003 75.901 27.8174 69.4404 19.4503 69.4404C11.0832 69.4404 4.30029 75.901 4.30029 83.8704C4.30029 91.8399 11.0832 98.3004 19.4503 98.3004Z" fill="#32DBC6"/>
</g>
<path d="M26.4301 35.3704C34.7696 35.3704 41.5301 28.6099 41.5301 20.2704C41.5301 11.9309 34.7696 5.17041 26.4301 5.17041C18.0906 5.17041 11.3301 11.9309 11.3301 20.2704C11.3301 28.6099 18.0906 35.3704 26.4301 35.3704Z" fill="white"/>
<mask id="mask3_622_633" style="mask-type:luminance" maskUnits="userSpaceOnUse" x="11" y="5" width="31" height="31">
<path d="M26.4301 35.3704C34.7696 35.3704 41.5301 28.6099 41.5301 20.2704C41.5301 11.9309 34.7696 5.17041 26.4301 5.17041C18.0906 5.17041 11.3301 11.9309 11.3301 20.2704C11.3301 28.6099 18.0906 35.3704 26.4301 35.3704Z" fill="white"/>
</mask>
<g mask="url(#mask3_622_633)">
<path d="M26.4301 22.3404C23.7901 22.3404 21.6401 19.8004 21.6401 16.6804C21.6401 13.5604 23.7901 11.0204 26.4301 11.0204C29.0701 11.0204 31.2201 13.5504 31.2201 16.6804C31.2201 19.8104 29.0701 22.3404 26.4301 22.3404Z" fill="#32DBC6"/>
<path d="M26.4303 53.2804C34.7974 53.2804 41.5803 46.8199 41.5803 38.8504C41.5803 30.8809 34.7974 24.4204 26.4303 24.4204C18.0632 24.4204 11.2803 30.8809 11.2803 38.8504C11.2803 46.8199 18.0632 53.2804 26.4303 53.2804Z" fill="#32DBC6"/>
</g>
<path d="M59.1699 6.61047H165.06V66.9705H59.1699V6.61047Z" fill="#32DBC6"/>
<path d="M73.8899 39.3504H128.31V42.7204H73.8899V39.3504ZM127.51 28.6604L118.58 19.7204L109.64 28.6604L100.7 19.7204L91.7699 28.6604L82.8299 19.7204L75.4099 27.1404L72.3799 24.1104L82.8299 13.6504L91.7699 22.5904L100.7 13.6504L109.64 22.5904L118.58 13.6504L127.51 22.5904L134.93 15.1704L137.97 18.2004L127.51 28.6604ZM73.8899 51.1404H98.5499V54.5104H73.8899V51.1404ZM104.51 51.1404H119.01V54.5104H104.51V51.1404Z" fill="white"/>
<path d="M259.205 81.1571L255.136 101.039C253.356 109.74 245.591 115.716 236.972 115.585C236.968 115.587 236.963 115.587 236.957 115.585C235.844 115.57 234.718 115.449 233.586 115.221C228.337 114.158 224.336 110.399 222.747 105.689C222.747 105.683 222.743 105.674 222.741 105.665C222.301 104.103 222.142 102.85 222.103 102.535C222.034 101.969 222.004 101.435 222 100.929V100.921C222.013 100.043 222.11 99.1514 222.293 98.258L223.498 89.6537L224.521 88.7948C225.7 87.232 227.016 85.8543 229.345 84.2462C230.221 83.6413 231.078 83.1483 231.896 82.7479C234.055 81.6888 236.438 81.1571 238.847 81.1571H259.205Z" fill="#099988"/>
<path d="M297.435 53.958C297.146 56.2226 294.404 67.4919 291.185 74.4838C290.184 76.6623 289.076 78.0034 288.169 78.9614C286.432 80.7912 284.609 81.4111 283.429 81.6415C283.255 81.6759 283.078 81.691 282.902 81.691L236.236 81.9988C234.245 81.9988 232.275 82.5047 230.49 83.5143C229.815 83.8953 229.106 84.3646 228.381 84.9415C226.454 86.4742 225.04 88.2739 224.065 89.7614C223.748 90.2457 223.477 90.6978 223.251 91.0939C223.288 90.7322 223.326 90.3706 223.363 90.0089C223.759 86.1793 224.403 82.3927 224.904 78.5825C225.139 76.7915 225.494 75.0177 225.985 73.2804C227.104 69.3131 228.426 63.1542 232.843 57.7015C236.062 54.268 238.793 54.1108 240.386 53.9558H297.435V53.958Z" fill="#32DBC6"/>
<path d="M228.449 50.9722C229.254 45.4871 230.059 40.0021 230.865 34.5192C231.594 31.3462 232.268 22.8667 240.244 15.9308C244.276 12.4219 249.102 12.1636 251.472 12H338.91C338.481 14.3787 337.02 26.5263 332.228 33.8648C330.736 36.1488 329.087 37.5588 327.735 38.5641C325.152 40.4843 322.435 41.1344 320.679 41.3755C320.418 41.4121 320.156 41.4272 319.891 41.4272H245.126C243.001 41.7436 239.678 42.5014 236.087 44.5163C232.29 46.6474 229.827 49.2651 228.449 50.9743V50.9722Z" fill="#32DBC6"/>
</svg>
