<svg width="56" height="56" viewBox="0 0 56 56" fill="none" xmlns="http://www.w3.org/2000/svg">
<path d="M48 0H8C3.58172 0 0 3.34294 0 7.46667V48.5333C0 52.6571 3.58172 56 8 56H48C52.4183 56 56 52.6571 56 48.5333V7.46667C56 3.34294 52.4183 0 48 0Z" fill="#AEAEAE"/>
<path d="M32.1125 7.7681L23.7431 16.1374C23.727 16.1535 23.7169 16.173 23.7008 16.1892C25.7626 15.889 27.8807 16.0948 29.8442 16.8605L35.5244 11.1802C37.4062 9.29839 40.4667 9.29839 42.3485 11.1802C44.2303 13.0619 44.2303 16.1225 42.3485 18.0041C42.0276 18.3252 33.4954 26.8575 33.9793 26.3734C32.0826 28.2703 28.9709 28.1891 27.1552 26.3734C26.2148 25.433 24.6837 25.433 23.7431 26.3734L22.2783 27.8382C22.6846 28.5286 23.1504 29.1929 23.7431 29.7856C27.3171 33.3596 33.469 33.6451 37.3395 29.8279C37.3557 29.8118 37.3751 29.8017 37.3914 29.7856L45.7606 21.4163C49.5294 17.6474 49.5294 11.537 45.7606 7.7681C41.9917 3.99917 35.8814 3.99917 32.1125 7.7681V7.7681Z" fill="#484848"/>
<path d="M26.1725 34.1802L20.4739 39.8788C18.5922 41.7606 15.5316 41.7606 13.6499 39.8788C11.7681 37.9969 11.7681 34.9365 13.6499 33.0546C13.9708 32.7338 22.5214 24.1832 22.0375 24.6671C23.9342 22.7704 27.0459 22.8514 28.8616 24.6671C29.802 25.6077 31.3331 25.6077 32.2736 24.6671L33.7384 23.2023C33.3321 22.5119 32.8663 21.8477 32.2736 21.2551C28.7065 17.6878 22.5591 17.3843 18.6773 21.2127C18.6611 21.2288 18.6416 21.2389 18.6254 21.2551L10.2378 29.6427C6.469 33.4115 6.46884 39.522 10.2378 43.2909C14.0067 47.0597 20.1172 47.0597 23.886 43.2909L32.2735 34.9032C32.2897 34.8872 32.2997 34.8678 32.3158 34.8514C30.254 35.1517 28.136 34.9458 26.1725 34.1802V34.1802Z" fill="#484848"/>
</svg>
