<svg width="110" height="87" viewBox="0 0 110 87" fill="none" xmlns="http://www.w3.org/2000/svg">
<rect width="110" height="87" rx="20" fill="#1D1D1D"/>
<path d="M33.7305 14.0224C34.5383 14.3758 35.22 14.8808 35.7754 15.5371C36.2298 16.0926 36.6085 16.6985 36.8609 17.3801C37.1386 18.0617 37.2649 18.8191 37.2649 19.6774C37.2649 20.7125 37.0124 21.7224 36.4822 22.7322C35.9521 23.742 35.0937 24.4489 33.8819 24.8528C34.8918 25.2568 35.5986 25.8374 36.0278 26.5695C36.4569 27.3016 36.6589 28.463 36.6589 29.9777V31.4419C36.6589 32.4265 36.7094 33.1082 36.7852 33.4616C36.9114 34.017 37.1891 34.4462 37.6183 34.6986V35.254H32.5944C32.539 35.0437 32.4885 34.8479 32.4429 34.6709C32.3844 34.4444 32.334 34.2487 32.2915 34.0928C32.1652 33.4869 32.1147 32.8557 32.0894 32.2245L32.0642 30.2049C32.039 28.8164 31.8118 27.8823 31.3321 27.4279C30.8777 26.9734 29.9941 26.721 28.7318 26.721H24.2885V35.254H19.8453V13.4417H30.2717C31.7865 13.4922 32.9226 13.669 33.7305 14.0224ZM24.3138 17.2538V23.0856H29.2115C30.1961 23.0856 30.9029 22.9594 31.4078 22.7322C32.2662 22.3283 32.6954 21.4951 32.6954 20.2834C32.6954 18.9706 32.2662 18.0617 31.4331 17.6325C30.9534 17.3801 30.2718 17.2538 29.3377 17.2538H24.3138Z" fill="#32DBC6"/>
<path d="M33.7305 14.0224C34.5383 14.3758 35.22 14.8808 35.7754 15.5371C36.2298 16.0926 36.6085 16.6985 36.8609 17.3801C37.1386 18.0617 37.2649 18.8191 37.2649 19.6774C37.2649 20.7125 37.0124 21.7224 36.4822 22.7322C35.9521 23.742 35.0937 24.4489 33.8819 24.8528C34.8918 25.2568 35.5986 25.8374 36.0278 26.5695C36.4569 27.3016 36.6589 28.463 36.6589 29.9777V31.4419C36.6589 32.4265 36.7094 33.1082 36.7852 33.4616C36.9114 34.017 37.1891 34.4462 37.6183 34.6986V35.254H32.5944C32.539 35.0437 32.4885 34.8479 32.4429 34.6709C32.3844 34.4444 32.334 34.2487 32.2915 34.0928C32.1652 33.4869 32.1147 32.8557 32.0894 32.2245L32.0642 30.2049C32.039 28.8164 31.8118 27.8823 31.3321 27.4279C30.8777 26.9734 29.9941 26.721 28.7318 26.721H24.2885V35.254H19.8453V13.4417H30.2717C31.7865 13.4922 32.9226 13.669 33.7305 14.0224ZM24.3138 17.2538V23.0856H29.2115C30.1961 23.0856 30.9029 22.9594 31.4078 22.7322C32.2662 22.3283 32.6954 21.4951 32.6954 20.2834C32.6954 18.9706 32.2662 18.0617 31.4331 17.6325C30.9534 17.3801 30.2718 17.2538 29.3377 17.2538H24.3138Z" stroke="black"/>
<path d="M51.8062 19.4503C52.9422 19.9552 53.8511 20.7379 54.5832 21.8487C55.2396 22.808 55.6688 23.9189 55.8708 25.1812C55.9718 25.9133 56.0222 26.9988 55.997 28.3873H44.2577C44.3335 30.0031 44.8889 31.1391 45.9492 31.7955C46.5804 32.1995 47.363 32.4014 48.2718 32.4014C49.2311 32.4014 50.0137 32.1489 50.6196 31.6692C50.9478 31.3915 51.2256 31.0382 51.4781 30.5585H55.795C55.6941 31.5178 55.1639 32.4772 54.2298 33.4617C52.7908 35.027 50.7712 35.8096 48.1709 35.8096C46.025 35.8096 44.1316 35.1532 42.4906 33.8151C40.8496 32.5024 40.0417 30.3312 40.0417 27.3523C40.0417 24.55 40.7738 22.4041 42.2633 20.9398C43.7528 19.4503 45.6715 18.693 48.0193 18.693C49.4331 18.693 50.6954 18.9454 51.8062 19.4503ZM45.4948 23.0857C44.8889 23.6916 44.5355 24.5248 44.384 25.5851H51.6547C51.579 24.4743 51.2003 23.6159 50.5439 23.0353C49.8875 22.4546 49.0292 22.1769 48.0446 22.1769C46.9338 22.1769 46.1007 22.4798 45.4948 23.0857Z" fill="#32DBC6"/>
<path d="M51.8062 19.4503C52.9422 19.9552 53.8511 20.7379 54.5832 21.8487C55.2396 22.808 55.6688 23.9189 55.8708 25.1812C55.9718 25.9133 56.0222 26.9988 55.997 28.3873H44.2577C44.3335 30.0031 44.8889 31.1391 45.9492 31.7955C46.5804 32.1995 47.363 32.4014 48.2718 32.4014C49.2311 32.4014 50.0137 32.1489 50.6196 31.6692C50.9478 31.3915 51.2256 31.0382 51.4781 30.5585H55.795C55.6941 31.5178 55.1639 32.4772 54.2298 33.4617C52.7908 35.027 50.7712 35.8096 48.1709 35.8096C46.025 35.8096 44.1316 35.1532 42.4906 33.8151C40.8496 32.5024 40.0417 30.3312 40.0417 27.3523C40.0417 24.55 40.7738 22.4041 42.2633 20.9398C43.7528 19.4503 45.6715 18.693 48.0193 18.693C49.4331 18.693 50.6954 18.9454 51.8062 19.4503ZM45.4948 23.0857C44.8889 23.6916 44.5355 24.5248 44.384 25.5851H51.6547C51.579 24.4743 51.2003 23.6159 50.5439 23.0353C49.8875 22.4546 49.0292 22.1769 48.0446 22.1769C46.9338 22.1769 46.1007 22.4798 45.4948 23.0857Z" stroke="black"/>
<path d="M64.5306 25.4595C65.3132 25.3586 65.8687 25.2323 66.2221 25.0809C66.828 24.8284 67.1309 24.4245 67.1309 23.8943C67.1309 23.2379 66.9037 22.7835 66.424 22.531C65.9444 22.2786 65.288 22.1524 64.3791 22.1524C63.3693 22.1524 62.6624 22.4048 62.2332 22.8845C61.9303 23.2379 61.7284 23.7428 61.6274 24.374H57.5628C57.6638 22.9602 58.0424 21.7989 58.7493 20.8901C59.8601 19.4763 61.7788 18.7694 64.5053 18.7694C66.2725 18.7694 67.8631 19.1229 69.2264 19.8298C70.5896 20.5367 71.2964 21.8494 71.2964 23.7933V31.1904C71.2964 31.6953 71.2965 32.3264 71.3217 33.0585C71.347 33.6139 71.4227 33.9926 71.5742 34.1945C71.7257 34.3965 71.9276 34.548 72.2053 34.6742V35.2549H67.6106C67.4844 34.9267 67.3834 34.6238 67.3329 34.3461C67.2824 34.0684 67.2319 33.7401 67.2067 33.3615C66.626 33.9926 65.9444 34.5228 65.187 34.9772C64.2782 35.5074 63.2431 35.7598 62.0818 35.7598C60.6175 35.7598 59.4057 35.3307 58.4464 34.4975C57.4871 33.6644 57.0074 32.4778 57.0074 30.9631C57.0074 28.9687 57.79 27.5549 59.33 26.6461C60.1631 26.1664 61.4254 25.813 63.0664 25.611L64.5306 25.4595ZM67.1057 27.4035C66.828 27.5802 66.5756 27.7064 66.2978 27.8074C66.0201 27.9084 65.6414 28.0094 65.1618 28.0851L64.2024 28.2619C63.2936 28.4133 62.6625 28.6152 62.2585 28.8425C61.6021 29.2211 61.2739 29.8271 61.2739 30.635C61.2739 31.3671 61.4759 31.872 61.8798 32.2002C62.2838 32.5284 62.7887 32.6798 63.3693 32.6798C64.2782 32.6798 65.1366 32.4021 65.9192 31.872C66.7018 31.3418 67.1057 30.3572 67.1309 28.9687V27.4035H67.1057Z" fill="#32DBC6"/>
<path d="M64.5306 25.4595C65.3132 25.3586 65.8687 25.2323 66.2221 25.0809C66.828 24.8284 67.1309 24.4245 67.1309 23.8943C67.1309 23.2379 66.9037 22.7835 66.424 22.531C65.9444 22.2786 65.288 22.1524 64.3791 22.1524C63.3693 22.1524 62.6624 22.4048 62.2332 22.8845C61.9303 23.2379 61.7284 23.7428 61.6274 24.374H57.5628C57.6638 22.9602 58.0424 21.7989 58.7493 20.8901C59.8601 19.4763 61.7788 18.7694 64.5053 18.7694C66.2725 18.7694 67.8631 19.1229 69.2264 19.8298C70.5896 20.5367 71.2964 21.8494 71.2964 23.7933V31.1904C71.2964 31.6953 71.2965 32.3264 71.3217 33.0585C71.347 33.6139 71.4227 33.9926 71.5742 34.1945C71.7257 34.3965 71.9276 34.548 72.2053 34.6742V35.2549H67.6106C67.4844 34.9267 67.3834 34.6238 67.3329 34.3461C67.2824 34.0684 67.2319 33.7401 67.2067 33.3615C66.626 33.9926 65.9444 34.5228 65.187 34.9772C64.2782 35.5074 63.2431 35.7598 62.0818 35.7598C60.6175 35.7598 59.4057 35.3307 58.4464 34.4975C57.4871 33.6644 57.0074 32.4778 57.0074 30.9631C57.0074 28.9687 57.79 27.5549 59.33 26.6461C60.1631 26.1664 61.4254 25.813 63.0664 25.611L64.5306 25.4595ZM67.1057 27.4035C66.828 27.5802 66.5756 27.7064 66.2978 27.8074C66.0201 27.9084 65.6414 28.0094 65.1618 28.0851L64.2024 28.2619C63.2936 28.4133 62.6625 28.6152 62.2585 28.8425C61.6021 29.2211 61.2739 29.8271 61.2739 30.635C61.2739 31.3671 61.4759 31.872 61.8798 32.2002C62.2838 32.5284 62.7887 32.6798 63.3693 32.6798C64.2782 32.6798 65.1366 32.4021 65.9192 31.872C66.7018 31.3418 67.1057 30.3572 67.1309 28.9687V27.4035H67.1057Z" stroke="black"/>
<path d="M79.2992 35.254H75.0831V13.4417H79.2992V35.254Z" fill="#32DBC6"/>
<path d="M79.2992 35.254H75.0831V13.4417H79.2992V35.254Z" stroke="black"/>
<path d="M32.5187 49.7953V53.6578H26.0052V71.6075H21.4106V53.6578H14.8467V49.7953H32.5187Z" fill="#32DBC6"/>
<path d="M32.5187 49.7953V53.6578H26.0052V71.6075H21.4106V53.6578H14.8467V49.7953H32.5187Z" stroke="black"/>
<path d="M38.628 53.5574H34.3616V49.6696H38.628V53.5574ZM34.3616 55.4761H38.628V71.6081H34.3616V55.4761Z" fill="#32DBC6"/>
<path d="M38.628 53.5574H34.3616V49.6696H38.628V53.5574ZM34.3616 55.4761H38.628V71.6081H34.3616V55.4761Z" stroke="black"/>
<path d="M62.8388 55.5515C63.5204 55.8292 64.1515 56.3088 64.7069 56.9905C65.1614 57.5459 65.4643 58.2528 65.6157 59.0606C65.7167 59.5908 65.7672 60.3987 65.7672 61.4337L65.742 71.6077H61.425V61.3327C61.425 60.7268 61.324 60.222 61.122 59.818C60.7433 59.0607 60.0618 58.682 59.0519 58.682C57.8906 58.682 57.0827 59.1616 56.6283 60.121C56.4011 60.6259 56.3001 61.257 56.3001 61.9639V71.5573H52.0588V61.9639C52.0588 61.0045 51.9578 60.3229 51.7559 59.8685C51.4024 59.0859 50.6956 58.7072 49.6605 58.7072C48.4487 58.7072 47.6408 59.0859 47.2369 59.8685C47.0097 60.3229 46.9087 60.9793 46.9087 61.8629V71.5573H42.6422V55.4505H46.732V57.7983C47.2622 56.9652 47.7418 56.3594 48.2215 56.0059C49.0294 55.3748 50.0897 55.0466 51.4025 55.0466C52.6395 55.0466 53.6241 55.3243 54.3815 55.8545C54.9873 56.3594 55.467 57.0157 55.7699 57.7983C56.3253 56.839 57.007 56.1574 57.8148 55.703C58.6732 55.2486 59.6578 55.0466 60.7181 55.0466C61.4502 55.1223 62.1571 55.2738 62.8388 55.5515Z" fill="#32DBC6"/>
<path d="M62.8388 55.5515C63.5204 55.8292 64.1515 56.3088 64.7069 56.9905C65.1614 57.5459 65.4643 58.2528 65.6157 59.0606C65.7167 59.5908 65.7672 60.3987 65.7672 61.4337L65.742 71.6077H61.425V61.3327C61.425 60.7268 61.324 60.222 61.122 59.818C60.7433 59.0607 60.0618 58.682 59.0519 58.682C57.8906 58.682 57.0827 59.1616 56.6283 60.121C56.4011 60.6259 56.3001 61.257 56.3001 61.9639V71.5573H52.0588V61.9639C52.0588 61.0045 51.9578 60.3229 51.7559 59.8685C51.4024 59.0859 50.6956 58.7072 49.6605 58.7072C48.4487 58.7072 47.6408 59.0859 47.2369 59.8685C47.0097 60.3229 46.9087 60.9793 46.9087 61.8629V71.5573H42.6422V55.4505H46.732V57.7983C47.2622 56.9652 47.7418 56.3594 48.2215 56.0059C49.0294 55.3748 50.0897 55.0466 51.4025 55.0466C52.6395 55.0466 53.6241 55.3243 54.3815 55.8545C54.9873 56.3594 55.467 57.0157 55.7699 57.7983C56.3253 56.839 57.007 56.1574 57.8148 55.703C58.6732 55.2486 59.6578 55.0466 60.7181 55.0466C61.4502 55.1223 62.1571 55.2738 62.8388 55.5515Z" stroke="black"/>
<path d="M80.1572 55.804C81.2933 56.3089 82.2021 57.0915 82.9343 58.2023C83.5906 59.1616 84.0198 60.2724 84.2218 61.5347C84.3228 62.2669 84.3733 63.3524 84.348 64.7409H72.6088C72.6845 66.3566 73.2399 67.4927 74.3002 68.1491C74.9313 68.553 75.714 68.755 76.6228 68.755C77.5822 68.755 78.3648 68.5026 78.9707 68.0229C79.2989 67.7452 79.5765 67.3918 79.829 66.9121H84.1461C84.0451 67.8714 83.5149 68.8307 82.5808 69.8153C81.1418 71.3806 79.1221 72.1632 76.5218 72.1632C74.3759 72.1632 72.4825 71.5067 70.8415 70.1687C69.2006 68.8559 68.3927 66.6848 68.3927 63.7058C68.3927 60.9036 69.1248 58.7577 70.6143 57.2935C72.1038 55.804 74.0225 55.0466 76.3704 55.0466C77.7841 55.0466 79.0464 55.2991 80.1572 55.804ZM73.8711 59.4393C73.2652 60.0452 72.9117 60.8784 72.7602 61.9387H80.0057C79.93 60.8279 79.5513 59.9695 78.8949 59.3888C78.2385 58.8082 77.3802 58.5305 76.3956 58.5305C75.2848 58.5305 74.4517 58.8334 73.8711 59.4393Z" fill="#32DBC6"/>
<path d="M80.1572 55.804C81.2933 56.3089 82.2021 57.0915 82.9343 58.2023C83.5906 59.1616 84.0198 60.2724 84.2218 61.5347C84.3228 62.2669 84.3733 63.3524 84.348 64.7409H72.6088C72.6845 66.3566 73.2399 67.4927 74.3002 68.1491C74.9313 68.553 75.714 68.755 76.6228 68.755C77.5822 68.755 78.3648 68.5026 78.9707 68.0229C79.2989 67.7452 79.5765 67.3918 79.829 66.9121H84.1461C84.0451 67.8714 83.5149 68.8307 82.5808 69.8153C81.1418 71.3806 79.1221 72.1632 76.5218 72.1632C74.3759 72.1632 72.4825 71.5067 70.8415 70.1687C69.2006 68.8559 68.3927 66.6848 68.3927 63.7058C68.3927 60.9036 69.1248 58.7577 70.6143 57.2935C72.1038 55.804 74.0225 55.0466 76.3704 55.0466C77.7841 55.0466 79.0464 55.2991 80.1572 55.804ZM73.8711 59.4393C73.2652 60.0452 72.9117 60.8784 72.7602 61.9387H80.0057C79.93 60.8279 79.5513 59.9695 78.8949 59.3888C78.2385 58.8082 77.3802 58.5305 76.3956 58.5305C75.2848 58.5305 74.4517 58.8334 73.8711 59.4393Z" stroke="black"/>
<path d="M95.1534 65.5492H87.5797V73.1229H95.1534V65.5492Z" fill="#32DBC6"/>
<path d="M95.1534 65.5492H87.5797V73.1229H95.1534V65.5492Z" stroke="black"/>
</svg>
