<svg width="147" height="46" viewBox="0 0 147 46" fill="none" xmlns="http://www.w3.org/2000/svg">
<g opacity="0.7">
<rect width="147" height="46" rx="23" fill="#585045"/>
<path d="M51.854 23.8234C49.2534 26.7158 41.5906 32.9659 41.2651 33.2324C41.0348 33.4194 40.7608 33.5109 40.4869 33.499H40.4631C40.197 33.499 39.931 33.4114 39.7127 33.2324C39.3871 32.9659 31.7243 26.7158 29.1237 23.8234C26.277 20.6487 26.2928 16.0854 29.1674 13.205C32.0419 10.3247 36.8738 10.265 39.8079 13.205L40.4869 13.8893L41.1698 13.205C44.1039 10.265 48.8762 10.265 51.8103 13.205C54.7444 16.1451 54.7008 20.6487 51.854 23.8234Z" fill="#EF233C" stroke="#EF233C" stroke-width="5" stroke-linecap="round" stroke-linejoin="round"/>
<path d="M77.6193 15.4545V30H75.858V17.3011H75.7727L72.2216 19.6591V17.8693L75.858 15.4545H77.6193ZM86.348 30.1989C85.5147 30.1989 84.7642 30.0331 84.0966 29.7017C83.429 29.3703 82.8939 28.9157 82.4915 28.3381C82.089 27.7604 81.8688 27.1023 81.831 26.3636H83.5355C83.6018 27.0218 83.9001 27.5663 84.4304 27.9972C84.9654 28.4233 85.6046 28.6364 86.348 28.6364C86.9446 28.6364 87.4749 28.4967 87.9389 28.2173C88.4077 27.938 88.7746 27.5545 89.0398 27.0668C89.3097 26.5743 89.4446 26.018 89.4446 25.3977C89.4446 24.7633 89.3049 24.1974 89.0256 23.7003C88.7509 23.1984 88.3722 22.803 87.8892 22.5142C87.4063 22.2254 86.8546 22.0786 86.2344 22.0739C85.7893 22.0691 85.3324 22.1378 84.8636 22.2798C84.3949 22.4171 84.009 22.5947 83.706 22.8125L82.0582 22.6136L82.9389 15.4545H90.4957V17.017H84.4162L83.9048 21.3068H83.9901C84.2884 21.0701 84.6624 20.8736 85.1122 20.7173C85.562 20.5611 86.0308 20.483 86.5185 20.483C87.4086 20.483 88.2017 20.696 88.8977 21.1222C89.5985 21.5436 90.1477 22.1212 90.5455 22.8551C90.9479 23.589 91.1491 24.4271 91.1491 25.3693C91.1491 26.2973 90.9408 27.1259 90.5241 27.8551C90.1122 28.5795 89.544 29.1525 88.8196 29.5739C88.0952 29.9905 87.2713 30.1989 86.348 30.1989Z" fill="white"/>
</g>
</svg>
