<svg width="147" height="46" viewBox="0 0 147 46" fill="none" xmlns="http://www.w3.org/2000/svg">
<g opacity="0.7">
<rect width="147" height="46" rx="23" fill="#585045"/>
<path d="M71.5057 30V28.7216L76.3068 23.4659C76.8703 22.8504 77.3343 22.3153 77.6989 21.8608C78.0634 21.4015 78.3333 20.9706 78.5085 20.5682C78.6884 20.161 78.7784 19.7348 78.7784 19.2898C78.7784 18.7784 78.6553 18.3357 78.4091 17.9616C78.1676 17.5876 77.8362 17.2988 77.4148 17.0952C76.9934 16.8916 76.5199 16.7898 75.9943 16.7898C75.4356 16.7898 74.9479 16.9058 74.5312 17.1378C74.1193 17.3651 73.7997 17.6847 73.5724 18.0966C73.3499 18.5085 73.2386 18.9915 73.2386 19.5455H71.5625C71.5625 18.6932 71.759 17.9451 72.152 17.3011C72.545 16.6572 73.08 16.1553 73.7571 15.7955C74.4389 15.4356 75.2036 15.2557 76.0511 15.2557C76.9034 15.2557 77.6586 15.4356 78.3168 15.7955C78.9749 16.1553 79.491 16.6406 79.8651 17.2514C80.2391 17.8622 80.4261 18.5417 80.4261 19.2898C80.4261 19.8248 80.3291 20.348 80.1349 20.8594C79.9455 21.366 79.6141 21.9318 79.1406 22.5568C78.6719 23.1771 78.0208 23.9347 77.1875 24.8295L73.9205 28.3239V28.4375H80.6818V30H71.5057ZM88.3594 30.1989C87.2893 30.1989 86.3778 29.9077 85.625 29.3253C84.8722 28.7382 84.2969 27.8883 83.8991 26.7756C83.5014 25.6581 83.3026 24.3087 83.3026 22.7273C83.3026 21.1553 83.5014 19.813 83.8991 18.7003C84.3016 17.5829 84.8793 16.7306 85.6321 16.1435C86.3897 15.5516 87.2988 15.2557 88.3594 15.2557C89.42 15.2557 90.3267 15.5516 91.0795 16.1435C91.8371 16.7306 92.4148 17.5829 92.8125 18.7003C93.215 19.813 93.4162 21.1553 93.4162 22.7273C93.4162 24.3087 93.2173 25.6581 92.8196 26.7756C92.4219 27.8883 91.8466 28.7382 91.0938 29.3253C90.3409 29.9077 89.4295 30.1989 88.3594 30.1989ZM88.3594 28.6364C89.42 28.6364 90.2438 28.125 90.831 27.1023C91.4181 26.0795 91.7116 24.6212 91.7116 22.7273C91.7116 21.4678 91.5767 20.3954 91.3068 19.5099C91.0417 18.6245 90.6581 17.9498 90.1562 17.4858C89.6591 17.0218 89.0601 16.7898 88.3594 16.7898C87.3082 16.7898 86.4867 17.3082 85.8949 18.3452C85.303 19.3774 85.0071 20.8381 85.0071 22.7273C85.0071 23.9867 85.1397 25.0568 85.4048 25.9375C85.67 26.8182 86.0511 27.4882 86.5483 27.9474C87.0502 28.4067 87.6539 28.6364 88.3594 28.6364Z" fill="white"/>
<path d="M49 11.782V28.5003C49 30.0363 47.7883 31.2823 46.2981 31.2823H41.9633C41.6458 31.2823 41.3413 31.3943 41.1015 31.6053L36.2095 35.7321C35.7819 36.0947 35.1598 36.0881 34.7387 35.7189L30.0086 31.6119C29.7624 31.4009 29.4579 31.2823 29.1404 31.2823H24.6955C23.2117 31.2823 22 30.0363 22 28.5003V11.782C22 10.246 23.2117 9 24.6955 9H46.2981C47.7883 9 49 10.246 49 11.782Z" fill="#D9D9D9" stroke="white" stroke-width="4" stroke-miterlimit="10"/>
</g>
</svg>
