<svg width="156" height="156" viewBox="0 0 156 156" fill="none" xmlns="http://www.w3.org/2000/svg">
<g opacity="0.8">
<g clip-path="url(#clip0_618_513)">
<path d="M143.537 74.6248L143.436 74.5918L143.402 74.6928L143.504 74.7259L143.537 74.6248Z" fill="white"/>
<path d="M140.77 83.5006L140.422 83.3867L140.308 83.7348L140.656 83.8486L140.77 83.5006Z" fill="white"/>
<path d="M137.913 92.4236L137.454 92.2734L137.304 92.7326L137.763 92.8828L137.913 92.4236Z" fill="white"/>
<path d="M134.938 101.406L134.546 101.277L134.418 101.669L134.81 101.798L134.938 101.406Z" fill="white"/>
<path d="M131.889 110.425L131.676 110.355L131.606 110.569L131.819 110.639L131.889 110.425Z" fill="white"/>
<path d="M36.5239 128.885L36.4229 128.852L36.3898 128.953L36.4908 128.986L36.5239 128.885Z" fill="white"/>
<path d="M45.6479 131.733L45.2998 131.619L45.186 131.967L45.534 132.081L45.6479 131.733Z" fill="white"/>
<path d="M54.6809 134.625L54.2217 134.475L54.0715 134.934L54.5307 135.084L54.6809 134.625Z" fill="white"/>
<path d="M63.5961 137.579L63.2041 137.451L63.0759 137.843L63.4679 137.971L63.5961 137.579Z" fill="white"/>
<path d="M72.437 140.57L72.2236 140.5L72.1539 140.713L72.3672 140.783L72.437 140.57Z" fill="white"/>
<g clip-path="url(#clip1_618_513)">
<path d="M79.3723 73.495C76.202 72.4285 72.7382 74.1532 71.6868 77.3224C70.6424 80.4702 72.3563 83.9151 75.4866 84.9686C78.6569 86.0351 82.1216 84.3077 83.1721 81.1412C84.2165 77.9933 82.5027 74.5484 79.3723 73.495V73.495Z" fill="white"/>
<path d="M74.5921 87.8278C71.7001 86.8936 68.5593 88.5055 67.6208 91.4017C66.6859 94.296 68.2953 97.4381 71.1891 98.3758C74.0812 99.31 77.222 97.6981 78.1605 94.8019C79.0954 91.9076 77.486 88.7655 74.5921 87.8278V87.8278Z" fill="white"/>
<path d="M65.2602 69.4351C62.3682 68.5098 59.2203 70.1342 58.304 73.0258C57.3938 75.8987 58.9871 79.0178 61.849 79.9539C64.7323 80.897 67.8891 79.2903 68.824 76.4048C69.7608 73.514 68.146 70.3613 65.2602 69.4351Z" fill="white"/>
<path d="M60.6112 83.6917C57.951 82.8334 55.0709 84.2885 54.1728 86.9439C53.273 89.6047 54.7448 92.5453 57.4176 93.4373C60.086 94.3249 63.0191 92.8428 63.8976 90.1662C64.7734 87.4887 63.2866 84.5579 60.6104 83.6944L60.6112 83.6917Z" fill="white"/>
<path d="M92.848 78.939C90.162 78.0692 87.3378 79.516 86.4665 82.2068C85.596 84.895 87.0406 87.7204 89.7292 88.591C92.4153 89.4607 95.2395 88.0139 96.1108 85.3231C96.9812 82.635 95.5367 79.8096 92.848 78.939Z" fill="white"/>
<path d="M80.3908 70.1632C83.0795 71.0427 85.902 69.6012 86.7751 66.9051C87.6368 64.2436 86.2029 61.4306 83.5409 60.5598C80.8522 59.6804 78.0296 61.1218 77.1566 63.818C76.2949 66.4794 77.7287 69.2925 80.3899 70.1659L80.3908 70.1632Z" fill="white"/>
<path d="M88.2893 93.1264C85.7932 92.2804 83.0518 93.6451 82.2283 96.1449C81.4117 98.6233 82.7723 101.336 85.2435 102.159C87.7173 102.983 90.4339 101.631 91.2629 99.1591C92.0964 96.6832 90.7535 93.9619 88.2893 93.1264V93.1264Z" fill="white"/>
<path d="M66.629 65.3397C69.1019 66.1486 71.8228 64.7654 72.6216 62.2871C73.4213 59.8061 72.0297 57.0895 69.5534 56.3002C67.0895 55.5179 64.4173 56.8786 63.6006 59.3304C62.7804 61.8018 64.1517 64.5265 66.6272 65.3362L66.629 65.3397Z" fill="white"/>
<path d="M94.4181 74.0724C96.764 74.8545 99.2321 73.6218 100.005 71.2856C100.782 68.9387 99.543 66.4759 97.2015 65.7071C94.8832 64.9487 92.4275 66.1707 91.6561 68.4749C90.8672 70.8237 92.0899 73.299 94.4172 74.075L94.4181 74.0724Z" fill="white"/>
<path d="M69.762 103.027C67.5934 102.244 65.2178 103.366 64.4182 105.548C63.6169 107.737 64.764 110.146 66.9751 110.925C69.1525 111.691 71.5191 110.552 72.2973 108.362C73.073 106.189 71.9439 103.815 69.7593 103.027L69.762 103.027Z" fill="white"/>
<path d="M51.0205 66.1897C48.8008 65.4547 46.4248 66.6673 45.7186 68.8985C45.0185 71.1109 46.2201 73.4436 48.4229 74.1493C50.631 74.8568 52.9654 73.6631 53.6824 71.4621C54.4029 69.2592 53.219 66.9176 51.0179 66.1888L51.0205 66.1897Z" fill="white"/>
<path d="M55.6893 98.65C53.6252 98.0073 51.3952 99.1525 50.7226 101.2C50.043 103.268 51.1991 105.551 53.2696 106.219C55.3427 106.888 57.6187 105.72 58.2761 103.647C58.9361 101.566 57.7596 99.2917 55.6902 98.6473L55.6893 98.65Z" fill="white"/>
<path d="M46.4374 80.3009C44.3711 79.5926 42.102 80.7309 41.4261 82.8155C40.7562 84.8814 41.8783 87.0964 43.9391 87.7764C45.9945 88.4547 48.2141 87.3415 48.9088 85.2807C49.6 83.2307 48.4965 81.004 46.4382 80.2983L46.4374 80.3009Z" fill="white"/>
<path d="M83.3821 108.101C81.4518 107.437 79.2993 108.499 78.6412 110.438C77.9867 112.377 79.0543 114.524 80.996 115.171C82.9351 115.817 85.0786 114.738 85.7145 112.793C86.3426 110.873 85.2938 108.759 83.3821 108.101V108.101Z" fill="white"/>
<path d="M53.1362 59.8307C55.0741 60.4263 57.1714 59.3351 57.7747 57.4186C58.3841 55.4835 57.3034 53.3853 55.3867 52.7702C53.4619 52.1524 51.3591 53.2241 50.7284 55.1433C50.0934 57.0848 51.1973 59.2379 53.138 59.8343L53.1362 59.8307Z" fill="white"/>
<path d="M106.377 84.8214C104.488 84.1324 102.376 85.1421 101.675 87.068C100.986 88.9592 101.994 91.072 103.918 91.7723C105.808 92.4612 107.92 91.4516 108.62 89.5257C109.31 87.6345 108.302 85.5217 106.377 84.8214Z" fill="white"/>
<path d="M85.3733 55.0006C87.3123 55.62 89.3938 54.5502 90.0111 52.6178C90.6311 50.6773 89.563 48.5949 87.632 47.9781C85.6931 47.3586 83.6116 48.4284 82.9942 50.3609C82.3742 52.3014 83.4424 54.3837 85.3733 55.0006V55.0006Z" fill="white"/>
<path d="M101.724 98.8585C99.8612 98.2403 97.898 99.2278 97.29 101.087C96.6899 102.921 97.6704 104.875 99.4932 105.48C101.356 106.098 103.319 105.11 103.927 103.252C104.527 101.417 103.547 99.4635 101.724 98.8585Z" fill="white"/>
<path d="M71.5822 50.2699C73.4057 50.8546 75.3775 49.8316 75.9563 47.9987C76.5274 46.1987 75.5265 44.2446 73.7322 43.6518C71.9104 43.0529 69.9305 44.0556 69.3365 45.8806C68.7425 47.7056 69.7542 49.6809 71.583 50.2673L71.5822 50.2699Z" fill="white"/>
<path d="M108.675 77.5353C110.413 78.1009 112.222 77.1782 112.789 75.4386C113.355 73.6989 112.433 71.889 110.695 71.3234C108.957 70.7577 107.148 71.6804 106.582 73.4201C106.015 75.1598 106.937 76.9697 108.675 77.5353Z" fill="white"/>
<path d="M99.3664 59.1186C101.1 59.6798 102.903 58.7491 103.459 57.0033C104.016 55.2664 103.075 53.4708 101.326 52.9194C99.6174 52.3811 97.833 53.3001 97.2721 55.0149C96.7042 56.751 97.6237 58.5574 99.3629 59.1204L99.3664 59.1186Z" fill="white"/>
<path d="M41.5267 94.9089C39.8479 94.342 38.1013 95.2085 37.5473 96.8842C37.0003 98.5386 37.859 100.269 39.5006 100.824C41.1795 101.391 42.9269 100.521 43.48 98.8484C44.0271 97.194 43.1683 95.4636 41.5267 94.9089Z" fill="white"/>
<path d="M36.5725 62.9437C35.1265 62.4855 33.5888 63.2637 33.0947 64.7022C32.5989 66.1549 33.3886 67.7446 34.8489 68.2311C36.3066 68.7168 37.8903 67.9152 38.3657 66.4529C38.8419 64.9879 38.0336 63.4098 36.569 62.9455L36.5725 62.9437Z" fill="white"/>
<path d="M57.9 45.0595C59.3533 45.5497 60.9406 44.7551 61.4221 43.2919C61.895 41.8554 61.133 40.3071 59.6974 39.7992C58.2564 39.2895 56.6601 40.0663 56.1537 41.5244C55.6535 42.9726 56.4396 44.5642 57.8973 45.0587L57.9 45.0595Z" fill="white"/>
<path d="M96.9271 113.531C95.4765 113.033 93.8874 113.824 93.3996 115.288C92.9188 116.722 93.6773 118.272 95.1111 118.785C96.5495 119.303 98.1475 118.53 98.6602 117.071C99.1684 115.625 98.3858 114.032 96.9271 113.531Z" fill="white"/>
<path d="M31.9992 76.9686C30.6109 76.5145 29.1651 77.2461 28.7044 78.6364C28.2437 80.0268 28.9644 81.4759 30.3484 81.9433C31.7616 82.4204 33.2295 81.6753 33.6847 80.2566C34.1312 78.8646 33.3902 77.4236 32.0018 76.9695L31.9992 76.9686Z" fill="white"/>
<path d="M39.4396 54.0431C40.765 54.5002 42.157 53.8249 42.5959 52.5101C43.0331 51.2095 42.3678 49.8346 41.0877 49.3922C39.7623 48.9351 38.373 49.6113 37.9314 50.9253C37.4942 52.2259 38.1595 53.6008 39.4396 54.0431V54.0431Z" fill="white"/>
<path d="M113.398 62.881C114.723 63.3381 116.112 62.6619 116.554 61.3479C116.991 60.0473 116.326 58.6725 115.046 58.2301C113.72 57.773 112.331 58.4492 111.889 59.7632C111.452 61.0638 112.117 62.4386 113.398 62.881Z" fill="white"/>
<path d="M119.704 90.6246C118.51 90.2519 117.206 90.9205 116.814 92.1091C116.416 93.3189 117.103 94.6627 118.315 95.0415C119.509 95.4142 120.813 94.7456 121.205 93.557C121.604 92.3472 120.916 91.0035 119.704 90.6246Z" fill="white"/>
<path d="M90.301 39.812C91.4797 40.2124 92.8028 39.5676 93.2238 38.3886C93.6509 37.191 92.991 35.8356 91.7829 35.4257C90.6041 35.0253 89.2811 35.6701 88.8601 36.8491C88.433 38.0467 89.0929 39.4021 90.301 39.812Z" fill="white"/>
<path d="M76.4971 35.1706C77.6483 35.5472 78.911 34.8974 79.2718 33.7401C79.6248 32.6068 78.9895 31.3746 77.8623 31.0059C76.7112 30.6294 75.4485 31.2791 75.0876 32.4364C74.7346 33.5697 75.3699 34.8019 76.4971 35.1706Z" fill="white"/>
<path d="M115.173 104.626C114.049 104.247 112.802 104.851 112.404 105.967C111.998 107.11 112.618 108.39 113.765 108.777C114.889 109.157 116.137 108.552 116.534 107.436C116.94 106.294 116.321 105.014 115.173 104.626Z" fill="white"/>
<path d="M36.5864 109.841C35.4628 109.479 34.2796 110.084 33.9151 111.208C33.5531 112.332 34.1571 113.516 35.2799 113.88C36.4035 114.242 37.5866 113.637 37.9512 112.513C38.3131 111.389 37.7091 110.205 36.5864 109.841Z" fill="white"/>
<path d="M27.2909 91.3092C26.1647 90.9556 24.9851 91.5676 24.6285 92.6939C24.2746 93.821 24.8857 95.001 26.011 95.3572C27.1372 95.7109 28.3168 95.0988 28.6734 93.9726C29.0273 92.8455 28.4162 91.6655 27.2909 91.3092V91.3092Z" fill="white"/>
<path d="M122.835 80.9158C123.943 81.3077 125.119 80.7507 125.501 79.6563C125.887 78.5485 125.321 77.3744 124.222 77.0003C123.116 76.6235 121.946 77.1973 121.576 78.3014C121.212 79.3868 121.767 80.5397 122.832 80.9176L122.835 80.9158Z" fill="white"/>
<path d="M104.256 44.1167C105.346 44.4732 106.529 43.8594 106.869 42.7634C107.201 41.6941 106.606 40.5371 105.541 40.1885C104.451 39.832 103.268 40.4458 102.927 41.5418C102.595 42.6111 103.19 43.7681 104.256 44.1167Z" fill="white"/>
<path d="M44.2052 39.6903C45.2026 40.0137 46.3027 39.4553 46.6342 38.4597C46.9658 37.464 46.419 36.3582 45.4267 36.0188C44.4318 35.6786 43.3264 36.2175 42.9779 37.2106C42.6225 38.225 43.1837 39.3592 44.2078 39.6912L44.2052 39.6903Z" fill="white"/>
<path d="M92.1356 128.208C91.146 127.861 90.0316 128.391 89.6761 129.379C89.3135 130.388 89.8685 131.532 90.8856 131.868C91.8831 132.2 92.9832 131.65 93.3236 130.655C93.6641 129.659 93.1261 128.553 92.1338 128.205L92.1356 128.208Z" fill="white"/>
<path d="M62.7365 30.3083C63.71 30.6326 64.7288 30.1333 65.0658 29.166C65.4125 28.1694 64.9041 27.1263 63.9057 26.7968C62.9322 26.4724 61.9134 26.9717 61.5764 27.939C61.2297 28.9356 61.7381 29.9787 62.7365 30.3083Z" fill="white"/>
<path d="M110.471 118.939C109.496 118.62 108.482 119.121 108.148 120.089C107.804 121.086 108.317 122.125 109.315 122.454C110.29 122.773 111.304 122.272 111.638 121.304C111.982 120.307 111.469 119.268 110.471 118.939Z" fill="white"/>
<path d="M127.543 66.7011C128.463 67.008 129.397 66.5341 129.698 65.614C129.991 64.7179 129.534 63.7979 128.653 63.489C127.734 63.1678 126.788 63.6259 126.478 64.5371C126.166 65.4564 126.63 66.3994 127.546 66.702L127.543 66.7011Z" fill="white"/>
<path d="M59.7594 133.219C58.8659 132.93 57.9435 133.387 57.6371 134.27C57.3193 135.187 57.7766 136.134 58.6871 136.443C59.6056 136.756 60.5465 136.287 60.8492 135.37C61.1528 134.451 60.6805 133.514 59.7568 133.218L59.7594 133.219Z" fill="white"/>
<path d="M118.237 48.3035C119.155 48.6006 120.089 48.1178 120.38 47.1916C120.663 46.2983 120.2 45.3791 119.31 45.0791C118.391 44.7669 117.451 45.2329 117.146 46.1485C116.842 47.0677 117.314 48.0046 118.235 48.3026L118.237 48.3035Z" fill="white"/>
<path d="M22.4227 59.4511C21.5042 59.1389 20.5624 59.6013 20.257 60.517C19.9507 61.4353 20.4195 62.3739 21.3388 62.6746C22.2555 62.9745 23.1919 62.4925 23.4848 61.5698C23.7691 60.6738 23.3084 59.7556 22.4218 59.4538L22.4227 59.4511Z" fill="white"/>
<path d="M73.5624 137.799C72.7259 137.56 71.8099 138.043 71.5421 138.862C71.2656 139.707 71.7593 140.669 72.6048 140.934C73.4557 141.2 74.4115 140.695 74.6676 139.849C74.9237 138.994 74.4105 138.038 73.566 137.797L73.5624 137.799Z" fill="white"/>
<path d="M25.8926 48.745C26.7374 49.0213 27.6985 48.5268 27.9635 47.6806C28.2303 46.8291 27.7259 45.8729 26.8804 45.617C26.05 45.369 25.1286 45.8411 24.8493 46.659C24.563 47.4983 25.0461 48.4652 25.8909 48.7415L25.8926 48.745Z" fill="white"/>
<path d="M45.8645 128.74C45.0359 128.486 44.1127 128.955 43.8298 129.774C43.5391 130.609 44.0178 131.581 44.8634 131.863C45.7037 132.144 46.6694 131.654 46.9397 130.809C47.2109 129.962 46.7109 129.002 45.8663 128.743L45.8645 128.74Z" fill="white"/>
<path d="M22.5745 105.764C21.7512 105.504 20.8244 105.965 20.5309 106.782C20.2321 107.614 20.7047 108.586 21.5477 108.877C22.3854 109.165 23.3519 108.681 23.6338 107.838C23.9121 106.996 23.4227 106.03 22.5781 105.763L22.5745 105.764Z" fill="white"/>
<path d="M17.8777 73.3834C17.0497 73.083 16.0725 73.5545 15.7817 74.3982C15.491 75.2331 15.9697 76.2045 16.8153 76.487C17.6557 76.7677 18.6213 76.2776 18.8916 75.4332C19.1549 74.61 18.6969 73.6838 17.8795 73.3869L17.8777 73.3834Z" fill="white"/>
<path d="M67.3708 16.1524C68.18 16.4201 69.0722 15.965 69.332 15.1525C69.5919 14.3401 69.1305 13.4511 68.3125 13.2013C67.522 12.9575 66.6616 13.3964 66.3937 14.1796C66.1178 14.9868 66.5616 15.8848 67.3708 16.1524Z" fill="white"/>
<path d="M122.834 34.2945C123.645 34.5568 124.533 34.0973 124.789 33.2804C125.035 32.4902 124.601 31.6277 123.819 31.3572C123.013 31.0789 122.114 31.5199 121.843 32.3288C121.573 33.1378 122.024 34.0322 122.834 34.2945Z" fill="white"/>
<path d="M81.2354 20.6874C82.0455 20.9523 82.9359 20.4937 83.1931 19.6804C83.4424 18.8911 83.0086 18.0259 82.2278 17.7528C81.4229 17.4718 80.5244 17.91 80.2504 18.7208C79.9772 19.5289 80.4245 20.4251 81.2345 20.69L81.2354 20.6874Z" fill="white"/>
<path d="M95.0572 25.2073C95.8603 25.4936 96.7641 25.0571 97.04 24.2499C97.3185 23.4435 96.8748 22.5456 96.0629 22.277C95.2777 22.0172 94.4057 22.4376 94.1199 23.2121C93.8254 24.0132 94.2514 24.9201 95.0545 25.2064L95.0572 25.2073Z" fill="white"/>
<path d="M108.961 29.7551C109.773 30.0147 110.661 29.5552 110.914 28.7375C111.158 27.9464 110.723 27.0839 109.941 26.8134C109.135 26.5351 108.238 26.9795 107.967 27.7885C107.697 28.5975 108.15 29.4927 108.962 29.7524L108.961 29.7551Z" fill="white"/>
<path d="M13.2644 87.3235C12.4765 87.0717 11.6099 87.5027 11.3339 88.2833C11.0501 89.0879 11.4841 89.9886 12.2907 90.2642C13.0973 90.5399 13.9948 90.0954 14.2627 89.2856C14.5305 88.4757 14.0762 87.5832 13.2644 87.3235V87.3235Z" fill="white"/>
<path d="M124.288 123.775C123.488 123.481 122.581 123.908 122.295 124.711C122.008 125.515 122.441 126.418 123.25 126.695C124.056 126.973 124.954 126.529 125.224 125.72C125.484 124.934 125.067 124.062 124.291 123.776L124.288 123.775Z" fill="white"/>
<path d="M128.788 109.756C127.998 109.512 127.137 109.951 126.869 110.734C126.593 111.542 127.037 112.439 127.846 112.707C128.656 112.975 129.548 112.52 129.808 111.707C130.067 110.895 129.606 110.006 128.788 109.756Z" fill="white"/>
<path d="M133.373 95.9018C132.567 95.6235 131.67 96.068 131.399 96.8769C131.129 97.6859 131.582 98.5812 132.394 98.8408C133.206 99.1004 134.094 98.641 134.346 97.8232C134.59 97.0321 134.156 96.1696 133.374 95.8991L133.373 95.9018Z" fill="white"/>
<path d="M48.8565 25.451C49.6666 25.716 50.557 25.2574 50.8142 24.4441C51.0635 23.6547 50.6297 22.7896 49.8489 22.5164C49.044 22.2354 48.1455 22.6737 47.8715 23.4845C47.5983 24.2926 48.0456 25.1887 48.8556 25.4537L48.8565 25.451Z" fill="white"/>
<path d="M105.828 133.091C105.04 132.839 104.173 133.27 103.897 134.051C103.614 134.855 104.048 135.756 104.854 136.032C105.661 136.307 106.558 135.863 106.826 135.053C107.094 134.243 106.64 133.351 105.828 133.091V133.091Z" fill="white"/>
<path d="M132.095 52.6774C132.898 52.9664 133.8 52.5326 134.082 51.7271C134.363 50.9216 133.923 50.0218 133.112 49.7507C132.327 49.4882 131.453 49.905 131.167 50.6821C130.871 51.4797 131.295 52.392 132.094 52.6801L132.095 52.6774Z" fill="white"/>
<path d="M136.938 84.9724C137.751 85.2293 138.638 84.7637 138.885 83.9442C139.126 83.1522 138.685 82.2906 137.902 82.0255C137.094 81.7525 136.199 82.2005 135.933 83.0112C135.668 83.822 136.126 84.7127 136.939 84.9697L136.938 84.9724Z" fill="white"/>
<path d="M30.4389 34.7834C31.2455 35.059 32.1405 34.6137 32.4092 33.8012C32.6744 32.9905 32.2227 32.0988 31.4108 31.8391C30.623 31.5873 29.7564 32.0183 29.4804 32.7989C29.1966 33.6035 29.6332 34.5051 30.4398 34.7807L30.4389 34.7834Z" fill="white"/>
<path d="M141.566 71.1326C142.379 71.387 143.264 70.9177 143.511 70.1009C143.749 69.3081 143.308 68.4492 142.521 68.1858C141.712 67.9155 140.819 68.3644 140.556 69.1786C140.291 69.9894 140.751 70.881 141.565 71.1353L141.566 71.1326Z" fill="white"/>
<path d="M31.8338 124.244C31.0399 124.011 30.184 124.463 29.9267 125.249C29.6615 126.06 30.1167 126.95 30.9286 127.21C31.7412 127.467 32.6281 127.001 32.8773 126.185C33.1265 125.369 32.6509 124.487 31.833 124.246L31.8338 124.244Z" fill="white"/>
<path d="M87.4417 142.434C86.6316 142.169 85.7412 142.628 85.484 143.441C85.2347 144.231 85.6658 145.095 86.4494 145.369C87.2542 145.65 88.1527 145.212 88.4285 144.404C88.7017 143.596 88.2545 142.7 87.4444 142.435L87.4417 142.434Z" fill="white"/>
</g>
</g>
<path d="M126.439 66.0006C127.568 62.5496 125.701 58.8421 122.269 57.7196L57.5437 36.5481C54.112 35.4256 50.415 37.3132 49.2862 40.7642L29.5285 101.167C28.3997 104.618 30.2666 108.326 33.6983 109.448L98.4238 130.62C101.856 131.742 105.553 129.855 106.681 126.404L126.439 66.0006ZM72.3353 50.0328L83.4681 53.6743L80.5726 62.5265L69.4398 58.885L72.3353 50.0328ZM45.8325 104.771L37.8066 102.146L40.7021 93.2936L48.7281 95.9188L45.8325 104.771ZM61.6727 56.3444L53.6468 53.7191L56.5423 44.8669L64.5682 47.4922L61.6727 56.3444ZM64.7324 110.953L53.5996 107.312L56.4951 98.4594L67.6279 102.101L64.7324 110.953ZM68.8926 88.5961L73.6121 74.1679C74.3147 72.0199 76.0938 71.7222 77.4959 73.4833L85.676 83.7309C87.0781 85.492 86.4628 87.4221 84.2909 88.0144L71.6139 91.4412C69.442 92.0335 68.19 90.7441 68.8926 88.5961ZM83.6322 117.135L72.4994 113.494L75.395 104.641L86.5277 108.283L83.6322 117.135ZM99.4724 68.7085L88.3396 65.067L91.2351 56.2149L102.368 59.8564L99.4724 68.7085ZM99.4252 122.301L91.3993 119.676L94.2948 110.824L102.321 113.449L99.4252 122.301ZM115.265 73.8744L107.239 71.2491L110.135 62.3969L118.161 65.0222L115.265 73.8744Z" fill="#717171"/>
</g>
<defs>
<clipPath id="clip0_618_513">
<rect width="123.361" height="123.361" fill="white" transform="translate(38.3516) rotate(18.1127)"/>
</clipPath>
<clipPath id="clip1_618_513">
<rect width="120.129" height="120.129" fill="white" transform="translate(38.8828 3.57422) rotate(18.1127)"/>
</clipPath>
</defs>
</svg>
