<svg width="147" height="46" viewBox="0 0 147 46" fill="none" xmlns="http://www.w3.org/2000/svg">
<g opacity="0.7">
<rect width="147" height="46" rx="23" fill="#585045"/>
<path d="M73.6193 15.4545V30H71.858V17.3011H71.7727L68.2216 19.6591V17.8693L71.858 15.4545H73.6193ZM82.9162 15.4545V30H81.1548V17.3011H81.0696L77.5185 19.6591V17.8693L81.1548 15.4545H82.9162Z" fill="white"/>
<path d="M28.0885 17.0234H48.9115C50.615 17.0234 52 18.4091 52 20.1135V22.6285C52 23.4253 51.3491 24.0766 50.5527 24.0766H26.4473C25.6509 24.0766 25 23.4253 25 22.6285V20.1135C25 18.4091 26.385 17.0234 28.0885 17.0234V17.0234Z" fill="#D5D5D5" stroke="white" stroke-width="3.5" stroke-miterlimit="10"/>
<path d="M28.0889 24.0684H49.3135V31.1908C49.3135 33.8443 47.1599 35.9991 44.5077 35.9991H32.8947C30.2425 35.9991 28.0889 33.8443 28.0889 31.1908V24.0684Z" fill="#D5D5D5" stroke="white" stroke-width="3.5" stroke-miterlimit="10"/>
<path d="M38.4961 17.334V35.6804" stroke="white" stroke-width="3.5" stroke-miterlimit="10"/>
<path d="M38.4962 17.0237C36.0241 17.0237 31.8691 13.6288 31.8691 10.7812Z" fill="#D5D5D5"/>
<path d="M38.4962 17.0237C36.0241 17.0237 31.8691 13.6288 31.8691 10.7812" stroke="white" stroke-width="3.5" stroke-miterlimit="10" stroke-linecap="round"/>
<path d="M38.6973 17.0237C41.1694 17.0237 45.3243 13.6288 45.3243 10.7812Z" fill="#D5D5D5"/>
<path d="M38.6973 17.0237C41.1694 17.0237 45.3243 13.6288 45.3243 10.7812" stroke="white" stroke-width="3.5" stroke-miterlimit="10" stroke-linecap="round"/>
<path d="M38.4134 9C39.4729 9 40.3385 9.83834 40.3385 10.8776C40.1031 12.873 39.4521 14.7991 38.4134 16.5381C37.3747 14.806 36.7237 12.873 36.4883 10.8776C36.4883 9.83834 37.347 9 38.4134 9V9Z" fill="#D5D5D5" stroke="white" stroke-width="2.8" stroke-miterlimit="10"/>
</g>
</svg>
